<?xml version="1.0" standalone="no"?>
<!DOCTYPE svg PUBLIC "-//W3C//DTD SVG 20010904//EN"
 "http://www.w3.org/TR/2001/REC-SVG-20010904/DTD/svg10.dtd">
<svg version="1.0" xmlns="http://www.w3.org/2000/svg"
 width="260.000000pt" height="260.000000pt" viewBox="0 0 260.000000 260.000000"
 preserveAspectRatio="xMidYMid meet">
<metadata>
Created by potrace 1.11, written by Peter Selinger 2001-2013
</metadata>
<g transform="translate(0.000000,260.000000) scale(0.100000,-0.100000)"
fill="#000000" stroke="none">
<path d="M1195 2594 c-219 -32 -339 -66 -475 -133 -264 -132 -468 -342 -602
-621 -34 -71 -83 -234 -100 -330 -18 -106 -15 -345 6 -452 102 -527 506 -932
1034 -1034 105 -21 342 -23 452 -6 541 89 972 515 1066 1052 20 114 22 325 5
430 -92 556 -503 974 -1056 1076 -83 15 -277 26 -330 18z m698 -690 c64 -22
129 -82 157 -146 19 -42 24 -71 24 -138 0 -108 -34 -190 -102 -251 -62 -54
-120 -69 -264 -69 -65 0 -118 -3 -118 -7 1 -5 107 -91 237 -193 130 -102 306
-240 391 -307 l155 -123 -246 0 -245 0 -393 315 -392 316 -125 -3 -126 -3 -96
-150 -96 -150 -208 -3 -208 -2 18 28 c11 16 98 142 193 280 l175 252 545 0
c419 0 552 3 571 13 31 16 39 61 14 88 -16 18 -38 19 -557 19 l-540 0 -144
116 c-79 64 -146 120 -149 125 -3 5 311 9 739 9 650 0 749 -2 790 -16z"/>
</g>
</svg>
